<svg width="50" height="34" viewBox="0 0 50 34" fill="none" xmlns="http://www.w3.org/2000/svg">
<path d="M10.9765 12.3636C13.1376 12.3636 15.2501 12.9981 17.047 14.1868C18.8439 15.3755 20.2444 17.0651 21.0714 19.0419C21.8984 21.0186 22.1147 23.1938 21.6931 25.2923C21.2715 27.3909 20.2309 29.3185 18.7028 30.8314C17.1747 32.3444 15.2277 33.3747 13.1082 33.7921C10.9886 34.2095 8.79167 33.9953 6.7951 33.1765C4.79853 32.3577 3.09204 30.9711 1.89141 29.1921C0.690782 27.413 0.04995 25.3214 0.04995 23.1818L0 21.6364C0 15.898 2.30238 10.3947 6.40064 6.33714C10.4989 2.27954 16.0573 0 21.8531 0V6.18182C19.8024 6.17636 17.7709 6.57347 15.8761 7.35018C13.9813 8.12688 12.2609 9.26779 10.8142 10.7069C10.2519 11.2625 9.73323 11.8598 9.26261 12.4935C9.82143 12.4069 10.3927 12.3605 10.9734 12.3605L10.9765 12.3636ZM39.0734 12.3636C41.2345 12.3636 43.347 12.9981 45.1439 14.1868C46.9408 15.3755 48.3413 17.0651 49.1683 19.0419C49.9953 21.0186 50.2117 23.1938 49.79 25.2923C49.3684 27.3909 48.3278 29.3185 46.7997 30.8314C45.2716 32.3444 43.3246 33.3747 41.2051 33.7921C39.0855 34.2095 36.8886 33.9953 34.892 33.1765C32.8954 32.3577 31.1889 30.9711 29.9883 29.1921C28.7877 27.413 28.1469 25.3214 28.1469 23.1818L28.0969 21.6364C28.0969 15.898 30.3993 10.3947 34.4975 6.33714C38.5958 2.27954 44.1542 0 49.95 0V6.18182C47.8993 6.17636 45.8678 6.57347 43.973 7.35018C42.0782 8.12688 40.3578 9.26779 38.9111 10.7069C38.3488 11.2625 37.8301 11.8598 37.3595 12.4935C37.9183 12.4069 38.4896 12.3636 39.0734 12.3636Z" fill="#18D398"/>
</svg>
