<svg width="50" height="34" viewBox="0 0 50 34" fill="none" xmlns="http://www.w3.org/2000/svg">
<path d="M39.0235 21.6364C36.8624 21.6364 34.7499 21.0019 32.953 19.8132C31.1561 18.6245 29.7556 16.9349 28.9286 14.9581C28.1016 12.9814 27.8852 10.8062 28.3069 8.70766C28.7285 6.60914 29.7691 4.68153 31.2972 3.16858C32.8253 1.65563 34.7723 0.625295 36.8918 0.207875C39.0114 -0.209548 41.2083 0.00468903 43.2049 0.823491C45.2015 1.64229 46.908 3.02889 48.1086 4.80793C49.3092 6.58697 49.95 8.67855 49.95 10.8182L50 12.3636C50 18.102 47.6976 23.6053 43.5994 27.6629C39.5011 31.7205 33.9427 34 28.1469 34L28.1469 27.8182C30.1976 27.8236 32.2291 27.4265 34.1239 26.6498C36.0187 25.8731 37.7391 24.7322 39.1858 23.2931C39.7481 22.7375 40.2668 22.1402 40.7374 21.5065C40.1786 21.5931 39.6073 21.6395 39.0266 21.6395L39.0235 21.6364ZM10.9266 21.6364C8.7655 21.6364 6.65296 21.0019 4.8561 19.8132C3.05923 18.6245 1.65874 16.9349 0.831736 14.9581C0.0047322 12.9814 -0.211653 10.8062 0.209951 8.70767C0.631555 6.60914 1.67221 4.68153 3.20032 3.16858C4.72843 1.65563 6.67535 0.625298 8.7949 0.207878C10.9145 -0.209546 13.1114 0.00469149 15.108 0.823493C17.1046 1.64229 18.8111 3.02889 20.0117 4.80793C21.2123 6.58697 21.8531 8.67856 21.8531 10.8182L21.9031 12.3636C21.9031 18.102 19.6007 23.6053 15.5025 27.6629C11.4042 31.7205 5.84577 34 0.0499535 34L0.0499529 27.8182C2.10071 27.8236 4.13221 27.4265 6.027 26.6498C7.92178 25.8731 9.64225 24.7322 11.0889 23.2931C11.6512 22.7375 12.1699 22.1402 12.6405 21.5066C12.0817 21.5931 11.5104 21.6364 10.9266 21.6364Z" fill="#18D398"/>
</svg>
