<svg width="12" height="7" viewBox="0 0 12 7" fill="none" xmlns="http://www.w3.org/2000/svg">
<path d="M11.1414 0C11.8717 0 12.2531 0.862765 11.8125 1.42015L11.7474 1.49365L6.60443 6.74374C6.45683 6.8944 6.26045 6.9849 6.05214 6.99827C5.84383 7.01165 5.63789 6.94697 5.47297 6.81637L5.3924 6.74374L0.249434 1.49365L0.17829 1.4114L0.132003 1.34402L0.0857164 1.26002L0.0711445 1.22852L0.0480012 1.1699L0.020572 1.07539L0.0120002 1.02902L0.0034288 0.976517L0 0.926641L0 0.823389L0.0042859 0.772639L0.0120002 0.720138L0.020572 0.674637L0.0480012 0.580135L0.0711445 0.521509L0.131146 0.406007L0.186861 0.327255L0.249434 0.25638L0.330007 0.183753L0.396009 0.136503L0.478296 0.0892518L0.509154 0.0743763L0.566584 0.0507505L0.659157 0.0227504L0.704586 0.0140001L0.756016 0.00524971L0.804874 0.0017499L11.1414 0Z" fill="#1C63EE"/>
</svg>
