<svg width="26" height="26" viewBox="0 0 26 26" fill="none" xmlns="http://www.w3.org/2000/svg">
<path d="M2.41176 13.7059H23.5882M2.41176 13.7059L3.22882 21.0427M2.41176 13.7059L1.12338 2.11043M23.5882 13.7059L22.7712 21.0427M23.5882 13.7059L24.8766 2.11043M3.22882 21.0427H22.7712M3.22882 21.0427C3.37529 23.2691 5.22382 25 7.45497 25H18.545C20.7762 25 22.6247 23.2691 22.7712 21.0427M2.11726 1H23.8827M2.11726 1V1C1.52125 1 1.05756 1.51806 1.12338 2.11043V2.11043M2.11726 1C1.88304 1 1.66925 1.08001 1.5 1.2131C1.34625 1.334 1.22925 1.49871 1.16709 1.68702C1.12357 1.81889 1.10693 1.96234 1.12338 2.11043M23.8827 1C24.4787 1 24.9424 1.51807 24.8766 2.11043M23.8827 1V1C24.4787 1 24.9424 1.51807 24.8766 2.11043V2.11043" stroke="#1C63EE" stroke-width="2"/>
</svg>
