<svg width="26" height="27" viewBox="0 0 26 27" fill="none" xmlns="http://www.w3.org/2000/svg">
<path d="M10.9933 6.07336L13.66 3.40669C14.9019 2.1896 16.574 1.5118 18.3129 1.52058C20.0517 1.52936 21.7169 2.22402 22.9464 3.45359C24.176 4.68317 24.8707 6.34831 24.8794 8.08716C24.8882 9.82602 24.2104 11.4981 22.9933 12.74L20.3267 15.4067M17.66 18.0734L12.3267 23.4067C11.0847 24.6238 9.41267 25.3016 7.67381 25.2928C5.93495 25.284 4.26981 24.5894 3.04024 23.3598C1.81066 22.1302 1.11601 20.4651 1.10722 18.7262C1.09844 16.9874 1.77624 15.3153 2.99333 14.0734L8.32667 8.74002M8.33333 8.73336L17.6667 18.0667M1 1.40002L25 25.4" stroke="#1C63EE" stroke-width="2" stroke-linecap="round" stroke-linejoin="round"/>
</svg>
