<svg width="26" height="27" viewBox="0 0 26 27" fill="none" xmlns="http://www.w3.org/2000/svg">
<path d="M9.30769 16.5692H16.6923M13 12.8769V20.2615M18.5385 7.33845V3.64614C18.5385 3.15651 18.344 2.68693 17.9977 2.34071C17.6515 1.99449 17.1819 1.79999 16.6923 1.79999H9.30769C8.81806 1.79999 8.34849 1.99449 8.00226 2.34071C7.65604 2.68693 7.46154 3.15651 7.46154 3.64614V7.33845M23.1538 7.33845H2.84615C2.35652 7.33845 1.88695 7.53295 1.54073 7.87918C1.1945 8.2254 1 8.69497 1 9.1846V23.9538C1 24.4435 1.1945 24.913 1.54073 25.2593C1.88695 25.6055 2.35652 25.8 2.84615 25.8H23.1538C23.6435 25.8 24.1131 25.6055 24.4593 25.2593C24.8055 24.913 25 24.4435 25 23.9538V9.1846C25 8.69497 24.8055 8.2254 24.4593 7.87918C24.1131 7.53295 23.6435 7.33845 23.1538 7.33845Z" stroke="#1C63EE" stroke-width="2" stroke-linecap="round" stroke-linejoin="round"/>
</svg>
