<svg width="16" height="17" viewBox="0 0 16 17" fill="none" xmlns="http://www.w3.org/2000/svg">
<path d="M6.84297 14.184C8.36102 14.1837 9.83532 13.6755 11.0311 12.7403L14.7908 16.5L16.0001 15.2907L12.2404 11.531C13.1761 10.3351 13.6846 8.86043 13.685 7.34199C13.685 3.56949 10.6155 0.5 6.84297 0.5C3.07047 0.5 0.000976562 3.56949 0.000976562 7.34199C0.000976562 11.1145 3.07047 14.184 6.84297 14.184ZM6.84297 2.2105C9.67299 2.2105 11.9745 4.51197 11.9745 7.34199C11.9745 10.172 9.67299 12.4735 6.84297 12.4735C4.01295 12.4735 1.71147 10.172 1.71147 7.34199C1.71147 4.51197 4.01295 2.2105 6.84297 2.2105Z" fill="white" fill-opacity="0.9"/>
</svg>
