<svg width="39" height="64" viewBox="0 0 39 64" fill="none" xmlns="http://www.w3.org/2000/svg">
<path d="M26.3 6.73684C26.3 11.8716 28.0238 16.88 31.23 21.0642L31.4 21.2853C34.7177 25.6138 36.5003 30.7951 36.5 36.1084V55.6842C36.5 57.3593 35.7836 58.9657 34.5083 60.1501C33.2331 61.3346 31.5035 62 29.7 62H9.3C7.49653 62 5.76692 61.3346 4.49167 60.1501C3.21643 58.9657 2.5 57.3593 2.5 55.6842V36.1053C2.5 30.7937 4.2816 25.6147 7.6 21.2853L7.77 21.0642C10.9768 16.8805 12.7 11.8725 12.7 6.73684M2.5 42.4305C3.86001 41.8874 5.03531 41.0108 5.9 39.8947C6.67238 38.8953 7.6951 38.0855 8.87984 37.5353C10.0646 36.9851 11.3757 36.7111 12.7 36.7368C14.0243 36.7111 15.3354 36.9851 16.5202 37.5353C17.7049 38.0855 18.7276 38.8953 19.5 39.8947C20.2724 40.8942 21.2951 41.704 22.4798 42.2542C23.6646 42.8044 24.9757 43.0784 26.3 43.0526C27.6243 43.0784 28.9354 42.8044 30.1202 42.2542C31.3049 41.704 32.3276 40.8942 33.1 39.8947C33.9638 38.7763 35.1392 37.8975 36.5 37.3526M12.7 11.4737H26.3V5.15789C26.3 4.32037 25.9418 3.51715 25.3042 2.92493C24.6665 2.33271 23.8017 2 22.9 2H16.1C15.1983 2 14.3335 2.33271 13.6958 2.92493C13.0582 3.51715 12.7 4.32037 12.7 5.15789V11.4737Z" stroke="white" stroke-opacity="0.9" stroke-width="4" stroke-linecap="round" stroke-linejoin="round"/>
</svg>
