<svg width="65" height="64" viewBox="0 0 65 64" fill="none" xmlns="http://www.w3.org/2000/svg">
<path d="M27.4833 13.6833L34.15 7.01667C37.2548 3.97394 41.435 2.27944 45.7821 2.3014C50.1293 2.32335 54.2921 4.05999 57.3661 7.13392C60.44 10.2079 62.1766 14.3707 62.1986 18.7178C62.2206 23.065 60.5261 27.2452 57.4833 30.35L50.8167 37.0167M44.15 43.6833L30.8167 57.0167C27.7118 60.0594 23.5317 61.7539 19.1845 61.7319C14.8374 61.71 10.6745 59.9733 7.60059 56.8994C4.52665 53.8255 2.79002 49.6626 2.76806 45.3155C2.74611 40.9683 4.4406 36.7882 7.48333 33.6833L20.8167 20.35M20.8333 20.3333L44.1667 43.6667M2.5 2L62.5 62" stroke="white" stroke-opacity="0.9" stroke-width="4" stroke-linecap="round" stroke-linejoin="round"/>
</svg>
