<svg width="55" height="60" viewBox="0 0 55 60" fill="none" xmlns="http://www.w3.org/2000/svg">
<path d="M38.5329 55.0455H39.0329V54.5455V42.046C45.6329 38.9069 50.011 32.2666 50.011 24.5455C50.011 13.63 41.2762 4.95455 30.2994 4.95455C19.6539 4.95455 11.2338 12.9954 10.5973 23.5456L5.4951 30.2169C4.91955 30.812 4.94478 31.5958 5.26211 32.1814C5.57661 32.7618 6.21283 33.2273 6.97106 33.2273H10.5878V40.9091C10.5878 44.1882 13.2847 46.8636 16.5768 46.8636H18.8214V54.5455V55.0455H19.3214H38.5329ZM6.27005 21.8497L6.3547 21.7393L6.37016 21.601C7.71355 9.58642 17.9242 0.5 30.2994 0.5C43.7488 0.5 54.5 11.1882 54.5 24.5455C54.5 32.836 50.4648 40.3099 43.7536 44.5781L43.522 44.7254V45V59.5H14.3323V51.5455V51.1707L13.9726 51.0655C9.49373 49.7565 6.0988 45.8424 6.0988 40.9091V38.1818V37.7908L5.71935 37.6966C3.67814 37.1895 2.14218 35.9289 1.10483 34.1364C0.0869817 31.8398 0.36281 29.3358 1.86065 27.5993L1.87006 27.5884L1.87883 27.577L6.27005 21.8497ZM33.0439 19.5909H40.7774V24.0455H33.0439H32.5439V24.5455V32.2273H28.0549V24.5455V24.0455H27.5549H19.8214V19.5909H27.5549H28.0549V19.0909V11.4091H32.5439V19.0909V19.5909H33.0439Z" fill="white" fill-opacity="0.9" stroke="#0072FF"/>
</svg>
