<svg width="44" height="44" viewBox="0 0 44 44" fill="none" xmlns="http://www.w3.org/2000/svg">
<path d="M15.3333 42V28.6667C15.3333 27.4879 15.8016 26.3575 16.6351 25.524C17.4686 24.6905 18.599 24.2222 19.7778 24.2222H24.2222C25.401 24.2222 26.5314 24.6905 27.3649 25.524C28.1984 26.3575 28.6667 27.4879 28.6667 28.6667V42M6.44444 22H2L22 2L42 22H37.5556V37.5556C37.5556 38.7343 37.0873 39.8648 36.2538 40.6983C35.4203 41.5317 34.2899 42 33.1111 42H10.8889C9.71015 42 8.57969 41.5317 7.74619 40.6983C6.9127 39.8648 6.44444 38.7343 6.44444 37.5556V22Z" stroke="white" stroke-opacity="0.9" stroke-width="3" stroke-linecap="round" stroke-linejoin="round"/>
</svg>
