<svg width="46" height="44" viewBox="0 0 46 44" fill="none" xmlns="http://www.w3.org/2000/svg">
<path d="M8.63158 4.22222H6.42105C5.24852 4.22222 4.124 4.69047 3.2949 5.52397C2.46579 6.35746 2 7.48793 2 8.66667V16.4444C2 19.686 3.28092 22.7948 5.56096 25.0869C7.84101 27.379 10.9334 28.6667 14.1579 28.6667C17.3824 28.6667 20.4748 27.379 22.7548 25.0869C25.0349 22.7948 26.3158 19.686 26.3158 16.4444V8.66667C26.3158 7.48793 25.85 6.35746 25.0209 5.52397C24.1918 4.69047 23.0673 4.22222 21.8947 4.22222H19.6842M13.0526 28.6667C13.0526 30.4176 13.3957 32.1514 14.0622 33.7691C14.7288 35.3868 15.7057 36.8566 16.9373 38.0948C18.1689 39.3329 19.631 40.315 21.2402 40.9851C22.8494 41.6551 24.574 42 26.3158 42C28.0575 42 29.7822 41.6551 31.3914 40.9851C33.0005 40.315 34.4627 39.3329 35.6943 38.0948C36.9259 36.8566 37.9028 35.3868 38.5693 33.7691C39.2359 32.1514 39.5789 30.4176 39.5789 28.6667V22M39.5789 22C38.4064 22 37.2819 21.5317 36.4528 20.6983C35.6237 19.8648 35.1579 18.7343 35.1579 17.5556C35.1579 16.3768 35.6237 15.2464 36.4528 14.4129C37.2819 13.5794 38.4064 13.1111 39.5789 13.1111C40.7515 13.1111 41.876 13.5794 42.7051 14.4129C43.5342 15.2464 44 16.3768 44 17.5556C44 18.7343 43.5342 19.8648 42.7051 20.6983C41.876 21.5317 40.7515 22 39.5789 22ZM19.6842 2V6.44444M8.63158 2V6.44444" stroke="white" stroke-opacity="0.9" stroke-width="3" stroke-linecap="round" stroke-linejoin="round"/>
</svg>
