<svg width="44" height="44" viewBox="0 0 44 44" fill="none" xmlns="http://www.w3.org/2000/svg">
<path d="M34.5 12V4.5C34.5 3.83696 34.2366 3.20107 33.7678 2.73223C33.2989 2.26339 32.663 2 32 2H7C5.67392 2 4.40215 2.52678 3.46447 3.46447C2.52678 4.40215 2 5.67392 2 7M2 7C2 8.32608 2.52678 9.59785 3.46447 10.5355C4.40215 11.4732 5.67392 12 7 12H37C37.663 12 38.2989 12.2634 38.7678 12.7322C39.2366 13.2011 39.5 13.837 39.5 14.5V22M2 7V37C2 38.3261 2.52678 39.5979 3.46447 40.5355C4.40215 41.4732 5.67392 42 7 42H37C37.663 42 38.2989 41.7366 38.7678 41.2678C39.2366 40.7989 39.5 40.163 39.5 39.5V32M42 22V32H32C30.6739 32 29.4021 31.4732 28.4645 30.5355C27.5268 29.5979 27 28.3261 27 27C27 25.6739 27.5268 24.4021 28.4645 23.4645C29.4021 22.5268 30.6739 22 32 22H42Z" stroke="white" stroke-opacity="0.9" stroke-width="3" stroke-linecap="round" stroke-linejoin="round"/>
</svg>
