<svg width="38" height="48" viewBox="0 0 38 48" fill="none" xmlns="http://www.w3.org/2000/svg">
<path d="M11.7143 6.88889H6.85714C5.56895 6.88889 4.33351 7.40397 3.42262 8.32081C2.51173 9.23766 2 10.4812 2 11.7778V41.1111C2 42.4077 2.51173 43.6512 3.42262 44.5681C4.33351 45.4849 5.56895 46 6.85714 46H31.1429C32.4311 46 33.6665 45.4849 34.5774 44.5681C35.4883 43.6512 36 42.4077 36 41.1111V11.7778C36 10.4812 35.4883 9.23766 34.5774 8.32081C33.6665 7.40397 32.4311 6.88889 31.1429 6.88889H26.2857M11.7143 6.88889C11.7143 5.59227 12.226 4.34877 13.1369 3.43192C14.0478 2.51508 15.2832 2 16.5714 2H21.4286C22.7168 2 23.9522 2.51508 24.8631 3.43192C25.774 4.34877 26.2857 5.59227 26.2857 6.88889M11.7143 6.88889C11.7143 8.1855 12.226 9.42901 13.1369 10.3459C14.0478 11.2627 15.2832 11.7778 16.5714 11.7778H21.4286C22.7168 11.7778 23.9522 11.2627 24.8631 10.3459C25.774 9.42901 26.2857 8.1855 26.2857 6.88889M11.7143 24H26.2857M11.7143 33.7778H26.2857" stroke="white" stroke-opacity="0.9" stroke-width="3" stroke-linecap="round" stroke-linejoin="round"/>
</svg>
