<svg width="213" height="47" viewBox="0 0 213 47" fill="none" xmlns="http://www.w3.org/2000/svg">
<path d="M22.1538 5.5C22.1538 7.60115 21.736 9.68173 20.9242 11.6229C20.1124 13.5641 18.9225 15.328 17.4225 16.8137C15.9225 18.2994 14.1417 19.478 12.1818 20.2821C10.2219 21.0861 8.12135 21.5 6 21.5M19.8462 37.5C19.8462 35.3988 20.264 33.3183 21.0758 31.3771C21.8876 29.4359 23.0775 27.672 24.5775 26.1863C26.0775 24.7006 27.8583 23.522 29.8182 22.7179C31.7781 21.9139 33.8786 21.5 36 21.5" stroke="url(#paint0_linear_41_1440)" stroke-width="11" stroke-linecap="round"/>
<path d="M48 5.5V13.5M44 9.5H52" stroke="url(#paint1_linear_41_1440)" stroke-width="3" stroke-linecap="round"/>
<path d="M61.0234 31.5H51.1562V14.3672H61.0234V17.3438H54.7891V21.1055H60.5898V24.082H54.7891V28.5H61.0234V31.5ZM75.9414 21.832C75.9414 22.5352 75.7188 23.1367 75.2734 23.6367C74.8359 24.1289 74.1875 24.4453 73.3281 24.5859V24.6797C74.2344 24.7891 74.9648 25.1055 75.5195 25.6289C76.0742 26.1445 76.3516 26.7969 76.3516 27.5859C76.3516 28.3359 76.1562 29.0078 75.7656 29.6016C75.375 30.1875 74.7539 30.6523 73.9023 30.9961C73.0508 31.332 71.9375 31.5 70.5625 31.5H64.3281V18.3984H70.5625C71.5859 18.3984 72.5039 18.5078 73.3164 18.7266C74.1289 18.9375 74.7695 19.293 75.2383 19.793C75.707 20.293 75.9414 20.9727 75.9414 21.832ZM72.6484 27.3984C72.6484 26.8828 72.4453 26.5117 72.0391 26.2852C71.6406 26.0508 71.0469 25.9336 70.2578 25.9336H67.9023V29.0273H70.3281C71 29.0273 71.5547 28.9023 71.9922 28.6523C72.4297 28.4023 72.6484 27.9844 72.6484 27.3984ZM72.3203 22.1133C72.3203 21.707 72.1602 21.4062 71.8398 21.2109C71.5195 21.0156 71.0469 20.918 70.4219 20.918H67.9023V23.5078H70.0117C70.7695 23.5078 71.3438 23.3984 71.7344 23.1797C72.125 22.9609 72.3203 22.6055 72.3203 22.1133ZM86.7109 18.1523C88.1875 18.1523 89.3789 18.7266 90.2852 19.875C91.1992 21.0234 91.6562 22.707 91.6562 24.9258C91.6562 26.4102 91.4414 27.6602 91.0117 28.6758C90.582 29.6836 89.9883 30.4453 89.2305 30.9609C88.4727 31.4766 87.6016 31.7344 86.6172 31.7344C85.9844 31.7344 85.4414 31.6562 84.9883 31.5C84.5352 31.3359 84.1484 31.1289 83.8281 30.8789C83.5078 30.6211 83.2305 30.3477 82.9961 30.0586H82.8086C82.8711 30.3711 82.918 30.6914 82.9492 31.0195C82.9805 31.3477 82.9961 31.668 82.9961 31.9805V37.2656H79.4219V18.3984H82.3281L82.832 20.0977H82.9961C83.2305 19.7461 83.5156 19.4219 83.8516 19.125C84.1875 18.8281 84.5898 18.5938 85.0586 18.4219C85.5352 18.2422 86.0859 18.1523 86.7109 18.1523ZM85.5625 21.0117C84.9375 21.0117 84.4414 21.1406 84.0742 21.3984C83.707 21.6562 83.4375 22.043 83.2656 22.5586C83.1016 23.0742 83.0117 23.7266 82.9961 24.5156V24.9023C82.9961 25.7461 83.0742 26.4609 83.2305 27.0469C83.3945 27.6328 83.6641 28.0781 84.0391 28.3828C84.4219 28.6875 84.9453 28.8398 85.6094 28.8398C86.1562 28.8398 86.6055 28.6875 86.957 28.3828C87.3086 28.0781 87.5703 27.6328 87.7422 27.0469C87.9219 26.4531 88.0117 25.7305 88.0117 24.8789C88.0117 23.5977 87.8125 22.6328 87.4141 21.9844C87.0156 21.3359 86.3984 21.0117 85.5625 21.0117ZM106.516 24.9258C106.516 26.0195 106.367 26.9883 106.07 27.832C105.781 28.6758 105.355 29.3906 104.793 29.9766C104.238 30.5547 103.566 30.9922 102.777 31.2891C101.996 31.5859 101.113 31.7344 100.129 31.7344C99.207 31.7344 98.3594 31.5859 97.5859 31.2891C96.8203 30.9922 96.1523 30.5547 95.582 29.9766C95.0195 29.3906 94.582 28.6758 94.2695 27.832C93.9648 26.9883 93.8125 26.0195 93.8125 24.9258C93.8125 23.4727 94.0703 22.2422 94.5859 21.2344C95.1016 20.2266 95.8359 19.4609 96.7891 18.9375C97.7422 18.4141 98.8789 18.1523 100.199 18.1523C101.426 18.1523 102.512 18.4141 103.457 18.9375C104.41 19.4609 105.156 20.2266 105.695 21.2344C106.242 22.2422 106.516 23.4727 106.516 24.9258ZM97.457 24.9258C97.457 25.7852 97.5508 26.5078 97.7383 27.0938C97.9258 27.6797 98.2188 28.1211 98.6172 28.418C99.0156 28.7148 99.5352 28.8633 100.176 28.8633C100.809 28.8633 101.32 28.7148 101.711 28.418C102.109 28.1211 102.398 27.6797 102.578 27.0938C102.766 26.5078 102.859 25.7852 102.859 24.9258C102.859 24.0586 102.766 23.3398 102.578 22.7695C102.398 22.1914 102.109 21.7578 101.711 21.4688C101.312 21.1797 100.793 21.0352 100.152 21.0352C99.207 21.0352 98.5195 21.3594 98.0898 22.0078C97.668 22.6562 97.457 23.6289 97.457 24.9258ZM108.309 26.5312V23.6016H114.602V26.5312H108.309ZM131.453 31.5H127.328L121.117 22.8164V31.5H117.484V14.3672H121.117V22.6641L127.258 14.3672H131.125L124.879 22.5938L131.453 31.5ZM145.059 31.5H141.484V21.082H138.191C138.027 23.0039 137.832 24.6406 137.605 25.9922C137.379 27.3438 137.09 28.4453 136.738 29.2969C136.387 30.1406 135.949 30.7578 135.426 31.1484C134.902 31.5391 134.258 31.7344 133.492 31.7344C133.07 31.7344 132.691 31.7031 132.355 31.6406C132.027 31.5781 131.727 31.4844 131.453 31.3594V28.5C131.625 28.5703 131.809 28.6289 132.004 28.6758C132.199 28.7148 132.398 28.7344 132.602 28.7344C132.828 28.7344 133.043 28.6445 133.246 28.4648C133.449 28.2852 133.641 27.9766 133.82 27.5391C134 27.0938 134.168 26.4805 134.324 25.6992C134.488 24.918 134.637 23.9297 134.77 22.7344C134.902 21.5391 135.027 20.0938 135.145 18.3984H145.059V31.5ZM152.277 18.3984V23.5781C152.277 23.8438 152.266 24.1797 152.242 24.5859C152.227 24.9844 152.203 25.3906 152.172 25.8047C152.141 26.2188 152.109 26.5898 152.078 26.918C152.047 27.2461 152.023 27.4688 152.008 27.5859L158.055 18.3984H162.355V31.5H158.898V26.2734C158.898 25.8438 158.914 25.3711 158.945 24.8555C158.977 24.332 159.012 23.8398 159.051 23.3789C159.09 22.918 159.117 22.5703 159.133 22.3359L153.109 31.5H148.82V18.3984H152.277ZM169.691 18.3984V23.4375H174.684V18.3984H178.258V31.5H174.684V26.0977H169.691V31.5H166.117V18.3984H169.691ZM185.465 18.3984V23.5781C185.465 23.8438 185.453 24.1797 185.43 24.5859C185.414 24.9844 185.391 25.3906 185.359 25.8047C185.328 26.2188 185.297 26.5898 185.266 26.918C185.234 27.2461 185.211 27.4688 185.195 27.5859L191.242 18.3984H195.543V31.5H192.086V26.2734C192.086 25.8438 192.102 25.3711 192.133 24.8555C192.164 24.332 192.199 23.8398 192.238 23.3789C192.277 22.918 192.305 22.5703 192.32 22.3359L186.297 31.5H182.008V18.3984H185.465ZM207.895 18.3984H211.832L206.641 24.6797L212.289 31.5H208.234L202.879 24.8555V31.5H199.305V18.3984H202.879V24.7617L207.895 18.3984Z" fill="#020610"/>
<defs>
<linearGradient id="paint0_linear_41_1440" x1="8.92208" y1="-8.93137" x2="45.9726" y2="43.8329" gradientUnits="userSpaceOnUse">
<stop stop-color="#013BDD"/>
<stop offset="0.494792" stop-color="#013BDD" stop-opacity="0.8"/>
<stop offset="1" stop-color="#013BDD" stop-opacity="0.6"/>
</linearGradient>
<linearGradient id="paint1_linear_41_1440" x1="44.7792" y1="1.89216" x2="53.8247" y2="15.6327" gradientUnits="userSpaceOnUse">
<stop stop-color="#013BDD"/>
<stop offset="0.494792" stop-color="#013BDD" stop-opacity="0.8"/>
<stop offset="1" stop-color="#013BDD" stop-opacity="0.6"/>
</linearGradient>
</defs>
</svg>
